<svg width="58" height="58" viewBox="0 0 58 58" fill="none" xmlns="http://www.w3.org/2000/svg">
<path d="M57.0063 37.7105L54.4299 42.7677C53.5294 44.348 51.9133 43.8591 50.1718 43.0062L47.1423 41.8851C45.736 43.8616 44.0274 45.6045 42.0791 47.0496L43.0511 50.6338C43.4984 52.4647 43.2698 53.6853 42.3653 54.2956L37.2544 56.7645C35.5786 57.4802 34.5886 56.1085 33.7179 54.379L31.7738 51.3256C30.6445 51.4936 29.5042 51.5773 28.3625 51.5761C27.3393 51.5781 26.3171 51.5103 25.3031 51.3733L23.514 54.8502C22.6135 56.5081 21.6175 57.2535 20.5381 57.0985L15.0992 55.4764C13.3816 54.874 13.5725 53.1982 14.0913 51.3316L14.8129 47.1749C13.2781 46.0592 11.8861 44.7593 10.6681 43.3044L7.42388 44.1811C5.59301 44.6343 4.37243 44.4077 3.76214 43.5012L1.28722 38.3903C0.577538 36.7145 1.94919 35.7245 3.67271 34.8538L5.84351 33.4702C5.49072 31.8479 5.31277 30.1925 5.31274 28.5323C5.31199 27.6234 5.36575 26.7153 5.47373 25.8128L3.20752 24.6439C1.54963 23.7434 0.804164 22.7534 0.959227 21.674L2.58134 16.2351C3.18368 14.5175 4.85949 14.7084 6.72613 15.2272L9.23684 15.6626C10.4794 13.8237 11.9774 12.1711 13.6858 10.7544L12.6421 6.88992C12.1889 5.05909 12.4155 3.83852 13.322 3.22822L18.4329 0.759232C20.1087 0.0495479 21.0987 1.41523 21.9694 3.14472L23.7526 5.94768C25.2703 5.64293 26.8145 5.4891 28.3625 5.48846C29.1334 5.48593 29.9039 5.52575 30.6705 5.60774L32.1793 2.6736C33.0798 1.02164 34.0698 0.270202 35.1492 0.431235L40.5941 2.04738C42.3057 2.64972 42.1148 4.32553 41.596 6.19217L41.0533 9.29929C42.5678 10.2991 43.959 11.4741 45.1981 12.8C43.415 13.8973 41.5185 14.8575 39.3417 15.4956C36.1459 12.6365 32.0066 11.0585 27.7184 11.0645C18.0751 11.0645 10.2566 18.8889 10.2566 28.5323C10.2566 38.1756 18.0751 46 27.7184 46C30.4445 46.0061 33.1335 45.3686 35.5667 44.1393C33.3661 38.772 29.4002 35.3727 22.9951 34.7107C26.1202 36.3269 28.7322 38.2531 30.4915 40.6744C20.7767 42.7796 14.6459 37.4182 16.1369 26.9579C16.8167 28.574 18.5641 30.0232 20.3532 30.226C23.0786 29.7668 27.4679 29.0869 30.1934 30.2379C32.221 31.2995 32.716 33.3987 32.6206 35.9034C32.7637 36.5356 33.3064 36.8576 34.0698 37.0008C34.7317 35.0149 35.1075 33.339 34.368 32.8798C33.3422 31.6036 32.6087 30.2558 32.4059 28.7649C31.5352 24.0595 34.4037 20.7735 40.3317 18.6504C46.2238 17.5471 48.9612 13.957 50.637 9.53188C53.3088 13.5574 54.0304 18.4297 53.8753 23.6778C53.5354 28.7649 48.0368 38.5692 39.3059 36.2016C38.5724 32.9216 42.7291 29.0153 46.8023 25.127C39.3238 29.7429 33.6523 34.8717 37.815 42.7796C38.9194 42.0001 39.9282 41.0933 40.8207 40.078C41.101 40.078 41.3753 40.0661 41.6497 40.0542C41.924 40.0423 42.1983 40.0184 42.4667 39.9945C42.7351 39.9707 42.9975 39.9349 43.2599 39.8991H43.2659C43.5044 39.8634 43.743 39.8276 43.9755 39.7799C44.0277 39.7728 44.0795 39.7628 44.1306 39.75C44.3572 39.7083 44.5779 39.6606 44.7985 39.6009C45.049 39.5413 45.2995 39.4757 45.544 39.4041C45.7885 39.3326 46.027 39.255 46.2656 39.1656C46.5042 39.0821 46.7367 38.9926 46.9693 38.8913C47.2019 38.8018 47.4285 38.7004 47.6552 38.5871H47.6611C47.8877 38.4798 48.1084 38.3665 48.3231 38.2412C48.5318 38.1339 48.7346 38.0146 48.9373 37.8894C49.164 37.7522 49.3906 37.6091 49.6112 37.454C50.9829 36.5117 52.6229 34.8061 53.8336 33.2257L55.3305 34.3767C56.7975 35.5635 57.3561 36.6747 57.0063 37.7105Z" fill="white"/>
</svg>
